<svg width="224" height="224" viewBox="0 0 224 224" fill="none" xmlns="http://www.w3.org/2000/svg">
<path d="M191.306 101.482C189.395 87.0783 183.598 73.4664 174.536 62.1081C165.475 50.7497 153.49 42.0738 139.871 37.0118C126.251 31.9497 111.509 30.6926 97.2288 33.3755C82.9484 36.0584 69.6683 42.5799 58.8142 52.2399C47.9601 61.8999 39.9419 74.3337 35.6203 88.2063C31.2987 102.079 30.8369 116.867 34.2846 130.982C37.7323 145.097 44.9591 158.007 55.1894 168.325C65.4197 178.644 78.267 185.981 92.3522 189.55L112 112L191.306 101.482Z" fill="#CDEC8B"/>
<path d="M181.272 101.928C179.443 89.3527 174.226 77.5127 166.18 67.6773C158.134 57.8419 147.563 50.3822 135.6 46.0981C123.636 41.8141 110.733 40.8673 98.2721 43.3593C85.8117 45.8514 74.2646 51.6882 64.8693 60.2439C55.4739 68.7996 48.5847 79.7514 44.9404 91.9248C41.2962 104.098 41.0343 117.034 44.183 129.345C47.3316 141.656 53.772 152.877 62.8134 161.806C71.8548 170.735 82.1506 178.006 94.5 181L105.216 139.982C100.136 138.75 95.4875 136.159 91.7686 132.486C88.0497 128.814 85.4006 124.198 84.1055 119.134C82.8105 114.071 82.9182 108.75 84.4171 103.743C85.9161 98.7356 88.7497 94.2309 92.6142 90.7117C96.4787 87.1926 101.228 84.7918 106.353 83.7668C111.479 82.7417 116.786 83.1312 121.707 84.8933C126.628 86.6554 130.976 89.7237 134.285 93.7692C137.595 97.8147 139.741 102.685 140.493 107.857L181.272 101.928Z" fill="#96C630"/>
<path d="M112.012 112.03L181 102L94.5 181L112.012 112.03Z" fill="#55692B"/>
</svg>
